<svg width="36" height="41" viewBox="0 0 36 41" fill="none" xmlns="http://www.w3.org/2000/svg">
<path d="M10.4569 25.7883L10.4569 25.7883L10.46 25.7875C11.5515 25.4892 12.6756 25.3272 13.8069 25.305C16.7625 25.2761 19.7091 25.2668 22.6321 25.4484C25.5557 25.7365 28.2962 27.0043 30.4086 29.0462C32.5147 31.0819 33.873 33.7679 34.2647 36.67C34.268 36.9816 34.3082 37.282 34.3451 37.546C34.3477 37.565 34.3504 37.5838 34.353 37.6024C34.3899 37.8656 34.4215 38.0911 34.4293 38.314L34.4301 38.3366L34.4327 38.3591C34.4614 38.6134 34.4334 38.8709 34.3506 39.113C34.2677 39.3551 34.1322 39.5758 33.9537 39.7591C33.7752 39.9424 33.5582 40.0839 33.3184 40.1731C33.0786 40.2624 32.822 40.2973 32.567 40.2754L32.542 40.2732H32.5169H2.7123C1.82921 40.2732 1.29982 40.04 0.999669 39.7069C0.69857 39.3727 0.521045 38.8192 0.604105 37.9433C1.21157 31.7501 4.81201 27.2967 10.4569 25.7883Z" stroke="black" stroke-width="1.16758"/>
<path d="M17.5505 20.2001L17.5412 20.1999L17.5318 20.2001C16.3004 20.2221 15.0771 19.9966 13.9346 19.5369C12.792 19.0771 11.7534 18.3926 10.8804 17.5238C10.0074 16.6551 9.31782 15.6198 8.85253 14.4795C8.38725 13.3392 8.15576 12.117 8.17179 10.8855L8.17192 10.8757L8.17171 10.8658C8.146 9.62531 8.37002 8.39228 8.83044 7.24007C9.29086 6.08786 9.97829 5.04 10.8518 4.15882C11.7254 3.27763 12.7672 2.58111 13.9154 2.11067C15.0635 1.64023 16.2946 1.40549 17.5353 1.4204L17.5353 1.42049L17.5458 1.42043C18.7768 1.413 19.9968 1.6515 21.1344 2.12192C22.2719 2.59233 23.3041 3.2852 24.1703 4.15986C25.0364 5.03453 25.7192 6.07338 26.1785 7.21546C26.6379 8.35754 26.8645 9.57985 26.8451 10.8107L26.8449 10.8217L26.8451 10.8327C26.8721 12.0641 26.6507 13.2883 26.1941 14.4322C25.7375 15.5761 25.055 16.6163 24.1875 17.4906C23.32 18.3649 22.2852 19.0555 21.1448 19.521C20.0045 19.9865 18.7821 20.2175 17.5505 20.2001Z" stroke="black" stroke-width="1.16758"/>
</svg>
