<svg width="115" height="70" viewBox="0 0 115 70" fill="none" xmlns="http://www.w3.org/2000/svg">
<g clip-path="url(#clip0_232_479)">
<path d="M22.1951 22.2056H42.3697C42.6997 22.2052 43.0239 22.1206 43.3105 21.96C43.7482 21.7143 44.0688 21.308 44.2019 20.8304C44.3349 20.3528 44.2696 19.8429 44.0202 19.4126L38.9683 10.8305L33.9247 2.24834C33.7584 1.96482 33.5194 1.72911 33.2313 1.56477C32.7943 1.31704 32.275 1.24989 31.7876 1.37807C31.3001 1.50626 30.8845 1.81928 30.632 2.24834L25.5856 10.8305L20.5419 19.4046C20.3761 19.6881 20.2889 20.0095 20.2891 20.3365C20.2891 20.5822 20.3384 20.8254 20.4342 21.0524C20.53 21.2793 20.6705 21.4855 20.8475 21.6591C21.0245 21.8327 21.2346 21.9703 21.4659 22.0641C21.6971 22.1579 21.9449 22.206 22.1951 22.2056Z" fill="#F4F4F4"/>
<path d="M51.0595 22.5498H51.1982C51.1982 22.5498 57.6421 22.208 57.982 22.208C59.4669 22.2446 60.9446 21.9935 62.3306 21.4691C63.7167 20.9447 64.984 20.1573 66.0601 19.1518C67.1362 18.1463 68.0001 16.9424 68.6024 15.6089C69.2046 14.2755 69.5335 12.8386 69.5702 11.3803C69.6439 8.43577 68.5239 5.58305 66.4563 3.4494C64.3888 1.31576 61.543 0.0758936 58.5448 0.00244141H57.982C54.9831 0.00314929 52.1072 1.17341 49.9867 3.25593C47.8662 5.33846 46.6745 8.16277 46.6738 11.1079V19.0251C46.6738 19.1094 46.6819 19.1934 46.6983 19.2761C46.8152 19.917 47.5167 22.5178 51.0595 22.5498Z" fill="#F4BB5F"/>
<path d="M74.4618 14.5126C74.8089 14.7082 75.1798 14.8599 75.5657 14.9639L75.446 15.1454C75.1325 15.682 74.9297 16.2739 74.8491 16.8874C74.7685 17.5008 74.8118 18.1239 74.9764 18.721C75.141 19.3181 75.4238 19.8775 75.8085 20.3672C76.1933 20.857 76.6725 21.2675 77.2188 21.5754C78.2613 22.1665 79.492 22.351 80.6666 22.0923C81.8412 21.8336 82.8738 21.1506 83.5594 20.1788C83.9578 20.7544 84.484 21.2337 85.0984 21.5807C85.6444 21.8885 86.2469 22.0877 86.8714 22.1668C87.4959 22.2459 88.1301 22.2034 88.7379 22.0417C89.3456 21.88 89.915 21.6023 90.4134 21.2245C90.9119 20.8467 91.3297 20.3761 91.6429 19.8397C92.0857 19.0818 92.305 18.2177 92.2762 17.3443C92.2474 16.4709 91.9716 15.6227 91.4798 14.8945C92.0756 14.6953 92.6257 14.3828 93.0986 13.9748C93.5715 13.5667 93.9578 13.0712 94.2356 12.5165C94.5133 11.9617 94.677 11.3587 94.7174 10.7418C94.7577 10.1249 94.6739 9.50621 94.4706 8.92115C94.09 7.83302 93.316 6.91993 92.2954 6.35506V6.37108C91.6543 6.00427 90.935 5.78917 90.1945 5.74282C89.454 5.69647 88.7127 5.82015 88.0294 6.10406C88.1114 5.75365 88.1542 5.3955 88.1572 5.03597C88.1572 3.78673 87.6519 2.58866 86.7524 1.70531C85.8529 0.821958 84.633 0.325684 83.3609 0.325684C82.0886 0.325683 80.8684 0.821871 79.9685 1.70514C79.0686 2.58842 78.5627 3.78648 78.562 5.03597C78.5573 5.38489 78.592 5.73325 78.6653 6.07469C78.083 5.83978 77.4592 5.7199 76.8297 5.72188C76.2001 5.72386 75.5772 5.84767 74.9964 6.08623C74.4156 6.3248 73.8884 6.67344 73.4449 7.11223C73.0014 7.55101 72.6503 8.07133 72.4117 8.64345C71.9702 9.6995 71.9348 10.8772 72.312 11.957C72.6891 13.0368 73.4532 13.9451 74.4618 14.5126Z" fill="#5C96CA"/>
</g>
<g clip-path="url(#clip1_232_479)">
<path d="M110.272 36.4111C109.525 36.4111 109.218 36.5576 109.247 37.3874C109.309 39.2715 109.247 41.146 109.247 43.0301V66.1429C109.247 66.7433 109.247 67.1192 108.433 67.1192C103.194 67.0801 97.9545 67.0899 92.7201 67.1192C92.1358 67.1192 91.9346 66.9483 91.949 66.3479C91.9825 64.8835 91.9778 63.4192 91.949 61.9792C91.9155 59.9535 92.3274 60.261 90.2058 60.2073C89.6215 60.2073 89.43 60.383 89.4395 60.9785C89.4731 62.7114 89.4395 64.4589 89.4683 66.1673C89.4683 66.9385 89.2432 67.1436 88.5105 67.1436C84.526 67.1094 80.5367 67.1436 76.5378 67.1436C74.943 67.1436 74.9718 67.1436 74.9382 68.7837C74.918 68.9157 74.9246 69.0505 74.9575 69.1798C74.9905 69.3091 75.0491 69.4301 75.1298 69.5354H111.982C112.14 69.1142 112.202 68.6619 112.164 68.2126V40.9702C112.164 39.4765 112.164 39.4765 113.6 39.4765C114.079 39.4765 114.625 39.5302 115.037 39.1105V36.377C113.423 36.377 111.848 36.4502 110.272 36.4111Z" fill="#595757"/>
<path d="M20.1043 50.3128H34.2991C35.0462 50.3128 35.3479 50.0932 35.2569 49.3366C35.2426 49.184 35.2426 49.0303 35.2569 48.8777C35.2569 47.6623 35.2569 47.6623 34.0453 47.6623H1.27367C0.857663 47.6114 0.43575 47.6547 0.0380859 47.7892V50.1615C0.3893 50.2968 0.76498 50.3534 1.13957 50.3275H14.1754C16.4311 50.3275 16.4167 50.3275 16.4311 52.6705C16.4311 54.3936 16.182 54.1349 17.8678 54.1983C18.6724 54.2325 19.0172 54.008 18.9166 53.144C18.8831 52.5994 18.8831 52.0533 18.9166 51.5088C18.9406 50.3373 18.9406 50.3128 20.1043 50.3128Z" fill="#585656"/>
<path d="M16.8815 38.2222C17.1022 38.1056 17.3455 38.0402 17.5939 38.0309C17.8424 38.0217 18.0897 38.0687 18.3182 38.1686C21.9818 39.7452 25.6646 41.3023 29.3331 42.8595L35.1853 45.344V43.3915C35.2127 43.1967 35.1688 42.9985 35.0619 42.8346C34.955 42.6707 34.7927 42.5527 34.6058 42.5031C29.1527 40.1341 23.6963 37.7472 18.2368 35.3423C18.0519 35.2532 17.8499 35.207 17.6453 35.207C17.4408 35.207 17.2388 35.2532 17.0539 35.3423C13.4302 36.9694 9.79844 38.5656 6.15875 40.1308C4.11381 41.0046 2.11677 42.0101 0 42.7374V45.2806C0.297617 45.2707 0.5878 45.1833 0.842878 45.0267L16.8815 38.2222Z" fill="#595757"/>
<path d="M71.6007 56.8495C71.6007 56.171 71.4571 55.8732 70.7147 55.8732C60.4214 55.8992 50.1249 55.8992 39.8252 55.8732C39.15 55.8732 38.9536 56.1173 38.968 56.7762C38.9967 58.6262 38.968 60.4762 38.968 62.3262C38.968 64.3129 38.6327 63.9956 40.6633 64.0591C41.329 64.0591 41.4583 63.7955 41.4439 63.2C41.4104 61.9602 41.4775 60.7154 41.4439 59.4707C41.4104 58.6702 41.5972 58.3822 42.4592 58.3822C51.038 58.4212 59.6105 58.4212 68.1765 58.3822C68.8949 58.3822 69.1344 58.553 69.1344 59.3291C69.0817 61.5159 69.1344 63.6979 69.1344 65.8847C69.1344 67.1099 69.1344 67.1148 67.9467 67.1148H4.38609C2.5423 67.1148 2.5423 67.1148 2.5423 65.2745C2.5423 64.0396 2.5423 64.0396 3.73957 64.0396H34.2747C35.1463 64.0396 35.3762 63.7809 35.3522 62.9169C35.2948 60.9302 35.2852 58.9728 35.3522 57.0057C35.381 56.0734 35.0936 55.839 34.1981 55.839C23.1832 55.8683 12.1683 55.8683 1.15347 55.839C0.768651 55.7969 0.379457 55.8419 0.0136719 55.9708V58.3382C0.492579 58.8264 1.06248 58.7043 1.61322 58.7043H30.7787C32.2872 58.7043 32.4692 58.9191 32.2968 60.4616C32.2785 60.6368 32.2176 60.8046 32.1196 60.9497C31.6788 61.2626 31.138 61.3934 30.6063 61.3158H0.846969C0.701047 61.3104 0.555696 61.3371 0.420742 61.3939C0.1765 61.5062 0.0663514 61.7503 0.0807186 62.1554C0.109453 63.3952 0.0807186 64.6351 0.0807186 65.8798C0.0307653 67.0888 0.0483539 68.2997 0.133399 69.5066H71.6055C71.6007 65.2989 71.5816 61.0766 71.6007 56.8495Z" fill="#595757"/>
<path d="M98.3154 41.4731H82.5115C79.5566 41.5024 77.1764 42.7227 75.7253 45.3782C74.9864 46.674 74.5995 48.1471 74.6045 49.6459C74.6096 51.1447 75.0064 52.6151 75.7541 53.9057C77.3009 56.7661 79.9349 57.8107 83.0239 57.8107H97.8461C98.6187 57.8059 99.3895 57.7323 100.15 57.5911C103.152 57.0297 106.275 53.9887 106.117 49.4394C105.959 44.89 102.851 41.5268 98.3154 41.4731ZM99.6228 54.6526C99.0354 54.7653 98.439 54.8224 97.8413 54.8234H83.0239C79.9733 54.8234 78.9053 53.5689 78.3114 52.4804L78.2731 52.4072C77.7934 51.5703 77.5406 50.6185 77.5406 49.6493C77.5406 48.68 77.7934 47.7282 78.2731 46.8913L78.2971 46.8425C79.1735 45.2366 80.5288 44.4849 82.5546 44.4654H98.3346C101.179 44.4654 103.124 46.4813 103.21 49.5419C103.306 52.7537 101.06 54.3743 99.6228 54.6428V54.6526Z" fill="#595757"/>
<path d="M64.2497 48.7461C57.066 48.7851 49.8441 48.7461 42.6462 48.7461C41.4585 48.7461 41.4585 48.7461 41.4585 47.5014C41.4585 45.0607 41.4968 42.5859 41.4585 40.1355C41.4585 39.2569 41.6788 39.0079 42.5456 39.0128C49.5999 39.047 56.6542 39.0128 63.7085 39.0128C65.4086 39.0128 65.3703 39.0128 65.4086 37.2751C65.4086 36.5478 65.1883 36.3623 64.4939 36.3623C56.3142 36.3883 48.1312 36.3883 39.9451 36.3623C39.1837 36.3623 38.9873 36.6259 38.9873 37.3386C39.016 41.6438 39.0256 45.954 38.9873 50.2544C38.9873 51.1428 39.2651 51.299 40.0074 51.2941C44.0877 51.2599 48.1488 51.2941 52.2435 51.2941H64.47C65.2266 51.2941 65.5044 51.0696 65.3943 50.3179C65.3703 50.1675 65.3703 50.0142 65.3943 49.8639C65.5236 48.9413 65.1165 48.7412 64.2497 48.7461Z" fill="#585656"/>
<path d="M83.7267 39.0324C85.6758 39.0324 85.3406 39.3447 85.4172 37.2849C85.446 36.5234 85.149 36.3818 84.4881 36.3916C82.0936 36.4209 79.6655 36.3916 77.2519 36.3916H70.0204C69.3211 36.3916 69.1056 36.5819 69.1104 37.3141C69.1104 41.473 69.1104 45.6123 69.1104 49.7858C69.1104 51.2794 69.1104 51.2794 70.5759 51.3136C71.3709 51.3429 71.6439 51.1379 71.6343 50.269C71.5768 46.9058 71.6343 43.5377 71.5816 40.1746C71.5816 39.1983 71.8737 39.0226 72.7453 39.0324C76.4042 39.086 80.0535 39.086 83.7267 39.0324Z" fill="#585656"/>
<path d="M90.0061 39.0858H104.292C106.097 39.0858 105.815 39.2518 105.896 37.4945C105.939 36.6257 105.623 36.4304 104.828 36.4353C101.107 36.4695 97.3908 36.4353 93.6697 36.4353C91.6344 36.4353 91.6535 36.4353 91.6296 34.3217C91.6296 32.335 92.0223 32.6377 89.8576 32.5742C89.235 32.5742 89.1105 32.8281 89.1201 33.3845C89.1536 34.9953 89.1632 36.6013 89.1201 38.2121C89.1009 38.8906 89.3691 39.0858 90.0061 39.0858Z" fill="#585656"/>
</g>
<defs>
<clipPath id="clip0_232_479">
<rect width="74.4152" height="22.5501" fill="white" transform="translate(20.292)"/>
</clipPath>
<clipPath id="clip1_232_479">
<rect width="115" height="37" fill="white" transform="translate(0 32.5503)"/>
</clipPath>
</defs>
</svg>
