<svg width="62" height="19" viewBox="0 0 62 19" fill="none" xmlns="http://www.w3.org/2000/svg">
<g clip-path="url(#clip0_20_3660)">
<path d="M1.57256 18.3429H18.2386C18.5112 18.3425 18.779 18.2726 19.0158 18.14C19.3774 17.937 19.6422 17.6014 19.7521 17.2069C19.862 16.8123 19.808 16.3911 19.602 16.0356L15.4287 8.94601L11.2622 1.85644C11.1249 1.62222 10.9274 1.4275 10.6895 1.29174C10.3285 1.08709 9.89946 1.03163 9.4968 1.13752C9.09415 1.24341 8.75079 1.50199 8.54221 1.85644L4.37346 8.94601L0.206933 16.029C0.0699313 16.2632 -0.00209367 16.5287 -0.00195292 16.7988C-0.00195313 17.0018 0.0387925 17.2027 0.117947 17.3902C0.197101 17.5777 0.313108 17.748 0.459344 17.8914C0.605581 18.0348 0.779184 18.1485 0.9702 18.226C1.16122 18.3035 1.3659 18.3432 1.57256 18.3429Z" fill="#F4F4F4"/>
<path d="M25.4169 18.6281H25.5314C25.5314 18.6281 30.8547 18.3457 31.1355 18.3457C32.3621 18.3759 33.5828 18.1685 34.7278 17.7353C35.8728 17.3021 36.9197 16.6516 37.8087 15.821C38.6977 14.9903 39.4113 13.9958 39.9088 12.8943C40.4064 11.7927 40.678 10.6057 40.7083 9.40104C40.7692 6.96862 39.844 4.61202 38.136 2.84944C36.428 1.08687 34.0772 0.0626311 31.6004 0.00195312H31.1355C28.6581 0.0025379 26.2824 0.969272 24.5307 2.68962C22.7789 4.40997 21.7945 6.74309 21.7939 9.17603V15.7164C21.7939 15.786 21.8006 15.8554 21.8142 15.9237C21.9107 16.4531 22.4902 18.6016 25.4169 18.6281Z" fill="#F4BB5F"/>
<path d="M44.7489 11.9882C45.0356 12.1498 45.342 12.275 45.6608 12.361L45.562 12.511C45.303 12.9542 45.1354 13.4431 45.0688 13.9499C45.0023 14.4567 45.038 14.9714 45.174 15.4647C45.31 15.9579 45.5436 16.42 45.8614 16.8246C46.1792 17.2292 46.5751 17.5683 47.0264 17.8226C47.8876 18.311 48.9043 18.4634 49.8746 18.2497C50.8449 18.036 51.698 17.4717 52.2643 16.669C52.5934 17.1445 53.0281 17.5404 53.5356 17.8271C53.9867 18.0813 54.4844 18.2459 55.0003 18.3112C55.5162 18.3765 56.0401 18.3414 56.5422 18.2079C57.0442 18.0743 57.5146 17.8449 57.9263 17.5328C58.3381 17.2207 58.6832 16.832 58.942 16.3888C59.3078 15.7627 59.4889 15.049 59.4651 14.3274C59.4413 13.6059 59.2135 12.9052 58.8072 12.3036C59.2995 12.1391 59.7539 11.8809 60.1445 11.5439C60.5351 11.2068 60.8543 10.7975 61.0837 10.3392C61.3132 9.88095 61.4484 9.38277 61.4818 8.87315C61.5151 8.36353 61.4458 7.85247 61.2779 7.36916C60.9635 6.47027 60.3241 5.71597 59.481 5.24935V5.26258C58.9514 4.95956 58.3572 4.78187 57.7455 4.74358C57.1338 4.70529 56.5214 4.80747 55.9569 5.042C56.0246 4.75253 56.06 4.45667 56.0625 4.15966C56.0625 3.12768 55.645 2.13797 54.902 1.40824C54.1589 0.67852 53.1512 0.268555 52.1003 0.268555C51.0493 0.268555 50.0413 0.678449 49.2979 1.40811C48.5545 2.13777 48.1366 3.12747 48.136 4.15966C48.1322 4.4479 48.1608 4.73567 48.2213 5.01774C47.7403 4.82368 47.225 4.72465 46.705 4.72628C46.1849 4.72792 45.6703 4.83019 45.1905 5.02727C44.7107 5.22434 44.2752 5.51235 43.9088 5.87483C43.5425 6.2373 43.2524 6.66713 43.0553 7.13975C42.6906 8.01214 42.6613 8.98499 42.9729 9.87701C43.2845 10.769 43.9157 11.5194 44.7489 11.9882Z" fill="#5C96CA"/>
</g>
<defs>
<clipPath id="clip0_20_3660">
<rect width="61.4734" height="18.6283" fill="white"/>
</clipPath>
</defs>
</svg>
