<svg width="36" height="41" viewBox="0 0 36 41" fill="none" xmlns="http://www.w3.org/2000/svg">
<path d="M7.23516 40.8653C6.33327 40.8648 5.44119 40.6764 4.61472 40.3117C3.78824 39.947 3.04517 39.4139 2.43198 38.7458C1.76422 38.0261 1.24845 37.1767 0.91606 36.2492C0.583673 35.3217 0.441629 34.3356 0.498577 33.3509L1.52164 15.896C1.59408 14.13 2.33032 12.4584 3.58037 11.2216C4.83042 9.98492 6.50021 9.27617 8.24955 9.2398H11.4574V6.61237C11.4574 4.85866 12.1471 3.17678 13.3747 1.93672C14.6023 0.696658 16.2672 0 18.0033 0C19.7394 0 21.4043 0.696658 22.6319 1.93672C23.8595 3.17678 24.5491 4.85866 24.5491 6.61237V9.2398H27.6877C29.4306 9.27772 31.0944 9.98226 32.3432 11.2112C33.5919 12.4401 34.3325 14.1018 34.4156 15.8609L35.4993 33.3246C35.5611 34.3102 35.4239 35.2983 35.096 36.2287C34.7681 37.1592 34.2564 38.0126 33.5919 38.7371C32.9775 39.4089 32.232 39.9449 31.4023 40.3112C30.5726 40.6775 29.6769 40.8661 28.7714 40.8653H7.23516ZM8.24955 10.9126C6.92204 10.9454 5.65721 11.4898 4.71421 12.4342C3.77122 13.3787 3.22147 14.6516 3.1776 15.9923L2.16321 33.456C2.11892 34.2112 2.22669 34.9678 2.48003 35.6798C2.73336 36.3918 3.12698 37.0445 3.63711 37.5985C4.09547 38.1007 4.65177 38.5015 5.27101 38.7759C5.89024 39.0502 6.55899 39.1921 7.23516 39.1925H28.7714C29.4509 39.1918 30.1229 39.049 30.7451 38.7732C31.3673 38.4973 31.9262 38.0944 32.3868 37.5898C32.8964 37.0326 33.2884 36.3763 33.5388 35.6611C33.7892 34.9459 33.8928 34.1867 33.8434 33.4297L32.7596 15.966C32.7093 14.63 32.1567 13.3636 31.2143 12.4247C30.272 11.4858 29.0108 10.9451 27.6877 10.9126H24.5491V15.169C24.5491 16.1937 24.107 16.728 23.6821 16.728C23.2573 16.728 22.8151 16.2463 22.8151 15.169V10.9126H13.1914V15.4318C13.1914 16.3076 12.7493 16.728 12.3244 16.728C11.8996 16.728 11.4574 16.3864 11.4574 15.4318V10.9126H8.24955ZM18.0033 1.75162C16.7278 1.75394 15.5052 2.26679 14.6033 3.17786C13.7014 4.08892 13.1937 5.32393 13.1914 6.61237V9.2398H22.8151V6.61237C22.8128 5.32393 22.3051 4.08892 21.4032 3.17786C20.5013 2.26679 19.2788 1.75394 18.0033 1.75162Z" fill="#232323"/>
</svg>
