<svg width="26" height="24" viewBox="0 0 26 24" fill="none" xmlns="http://www.w3.org/2000/svg">
<path d="M12.5245 23.5365C12.6741 23.9971 13.3259 23.9971 13.4755 23.5365L16.0309 15.6717C16.0979 15.4657 16.2899 15.3262 16.5065 15.3262H24.776C25.2603 15.3262 25.4617 14.7064 25.0698 14.4217L18.3797 9.56105C18.2044 9.43373 18.1311 9.20804 18.1981 9.00203L20.7535 1.13729C20.9031 0.676632 20.3759 0.293571 19.984 0.578271L13.2939 5.43895C13.1186 5.56627 12.8814 5.56627 12.7061 5.43895L6.01595 0.578271C5.6241 0.29357 5.09686 0.676633 5.24653 1.13729L7.80195 9.00203C7.86888 9.20804 7.79555 9.43373 7.62031 9.56105L0.930157 14.4217C0.5383 14.7064 0.739688 15.3262 1.22405 15.3262H9.49353C9.71015 15.3262 9.90212 15.4657 9.96906 15.6717L12.5245 23.5365Z" fill="#F4BB5F"/>
</svg>
