<svg width="28" height="28" viewBox="0 0 28 28" fill="none" xmlns="http://www.w3.org/2000/svg">
<mask id="mask0_221_3220" style="mask-type:alpha" maskUnits="userSpaceOnUse" x="1" y="3" width="26" height="24">
<path d="M13.5245 26.5365C13.6741 26.9971 14.3259 26.9971 14.4755 26.5365L17.0309 18.6717C17.0979 18.4657 17.2899 18.3262 17.5065 18.3262H25.776C26.2603 18.3262 26.4617 17.7064 26.0698 17.4217L19.3797 12.561C19.2044 12.4337 19.1311 12.208 19.1981 12.002L21.7535 4.13729C21.9031 3.67663 21.3759 3.29357 20.984 3.57827L14.2939 8.43895C14.1186 8.56627 13.8814 8.56627 13.7061 8.43895L7.01595 3.57827C6.6241 3.29357 6.09686 3.67663 6.24653 4.13729L8.80195 12.002C8.86888 12.208 8.79555 12.4337 8.62031 12.561L1.93016 17.4217C1.5383 17.7064 1.73969 18.3262 2.22405 18.3262H10.4935C10.7101 18.3262 10.9021 18.4657 10.9691 18.6717L13.5245 26.5365Z" fill="#F4BB5F"/>
</mask>
<g mask="url(#mask0_221_3220)">
<rect width="17" height="36.5" transform="matrix(1 0 0 -1 -3 33.5)" fill="#F4BB5F"/>
</g>
</svg>
